<?xml version="1.0" standalone="no"?><!DOCTYPE svg PUBLIC "-//W3C//DTD SVG 1.1//EN" "http://www.w3.org/Graphics/SVG/1.1/DTD/svg11.dtd"><svg t="1569745640067" class="icon" viewBox="0 0 1253 1024" version="1.1" xmlns="http://www.w3.org/2000/svg" p-id="818" xmlns:xlink="http://www.w3.org/1999/xlink" width="244.7265625" height="200"><defs><style type="text/css"></style></defs><path d="M1246.840309 789.248539c-64.164601-65.002572-100.97545-159.992518-100.97545-260.668693s36.810849-195.546411 100.97545-260.548983a23.942015 23.942015 0 0 0 4.848258-23.40332 17.357961 17.357961 0 0 0-17.118541-12.808979 328.484452 328.484452 0 0 0-175.973814 65.301848 298.556932 298.556932 0 0 0-92.116904 114.083703 474.470891 474.470891 0 0 0-172.262801-152.869768c-7.12275-3.830722-14.425064-7.422025-21.667524-10.953473 63.027356-68.953004 170.766425-121.805004 170.766425-121.805003S704.852934-7.48188 612.436755 0.35913c-64.463877 5.566519-159.154548 125.695581-210.210896 197.521628a611.299509 611.299509 0 0 0-68.474164 15.80173 558.986205 558.986205 0 0 0-150.296002 68.713584 471.478139 471.478139 0 0 0-114.562544 105.225158A389.057751 389.057751 0 0 0 0.897826 521.816226a25.019406 25.019406 0 0 0 0 12.988544 389.835866 389.835866 0 0 0 67.995323 134.135141 471.478139 471.478139 0 0 0 114.682254 105.105448 527.08347 527.08347 0 0 0 63.326631 35.913023c115.93921-72.723872 194.528875-209.492635 203.507131-384.927753 13.407529 160.172083-29.927519 310.16881-121.206453 416.591068 1.436521 0.418985 2.992752 1.017536 4.548983 1.436521a622.492401 622.492401 0 0 0 87.448211 18.674772c20.231003 47.345336 45.609539 116.77718 43.634324 162.26701 0 0 74.040683-67.755904 110.971241-66.618658 26.216507 0.837971-13.407529-57.041852-38.36708-90.440963a626.562544 626.562544 0 0 0 143.053543-22.80477c27.114332 45.609539 87.687632 134.494272 148.62006 134.494272 0 0 78.410101-124.917466 127.072247-124.917466 0 0-75.297639-43.514613-98.521393-95.289221a451.127426 451.127426 0 0 0 108.517185-112.647183 298.317512 298.317512 0 0 0 92.296469 114.203414 328.125321 328.125321 0 0 0 176.153379 65.840542 17.417816 17.417816 0 0 0 17.118541-12.808978 23.343465 23.343465 0 0 0-4.908113-23.76245zM267.851298 468.784662A66.558803 66.558803 0 1 1 334.410101 402.225859a66.558803 66.558803 0 0 1-66.558803 66.558803z" fill="#232323" p-id="819"></path></svg>